<?xml version="1.0" encoding="UTF-8"?>
<svg version="1.1" xmlns="http://www.w3.org/2000/svg" width="500" height="500">
<path d="M0 0 C0.99 0.33 1.98 0.66 3 1 C3 1.66 3 2.32 3 3 C3.66 3 4.32 3 5 3 C5 3.66 5 4.32 5 5 C5.66 5 6.32 5 7 5 C7 5.66 7 6.32 7 7 C7.66 7 8.32 7 9 7 C10.55078125 8.609375 10.55078125 8.609375 12.3125 10.75 C14.98762235 13.91761349 17.73925686 16.43092965 21 19 C21 19.66 21 20.32 21 21 C21.66 21 22.32 21 23 21 C23 21.66 23 22.32 23 23 C23.66 23 24.32 23 25 23 C25 23.66 25 24.32 25 25 C25.66 25 26.32 25 27 25 C27 25.66 27 26.32 27 27 C27.66 27 28.32 27 29 27 C29 27.66 29 28.32 29 29 C29.66 29 30.32 29 31 29 C31 29.66 31 30.32 31 31 C31.66 31 32.32 31 33 31 C33 31.66 33 32.32 33 33 C33.99 33.33 34.98 33.66 36 34 C36 34.66 36 35.32 36 36 C36.66 36 37.32 36 38 36 C38 36.66 38 37.32 38 38 C38.66 38 39.32 38 40 38 C40 38.66 40 39.32 40 40 C40.66 40 41.32 40 42 40 C42 40.66 42 41.32 42 42 C42.66 42 43.32 42 44 42 C44 42.66 44 43.32 44 44 C44.66 44 45.32 44 46 44 C46 44.66 46 45.32 46 46 C46.66 46 47.32 46 48 46 C48 46.66 48 47.32 48 48 C48.66 48 49.32 48 50 48 C51.55078125 49.609375 51.55078125 49.609375 53.3125 51.75 C55.98762235 54.91761349 58.73925686 57.43092965 62 60 C62 60.66 62 61.32 62 62 C62.66 62 63.32 62 64 62 C64 62.66 64 63.32 64 64 C64.66 64 65.32 64 66 64 C66 64.66 66 65.32 66 66 C66.66 66 67.32 66 68 66 C68 66.66 68 67.32 68 68 C68.66 68 69.32 68 70 68 C70 68.66 70 69.32 70 70 C70.66 70 71.32 70 72 70 C72 70.66 72 71.32 72 72 C72.66 72 73.32 72 74 72 C74 72.66 74 73.32 74 74 C74.639375 74.268125 75.27875 74.53625 75.9375 74.8125 C78 76 78 76 79 79 C79.66 79 80.32 79 81 79 C81 79.66 81 80.32 81 81 C81.66 81 82.32 81 83 81 C83 81.66 83 82.32 83 83 C83.66 83 84.32 83 85 83 C85 83.66 85 84.32 85 85 C85.66 85 86.32 85 87 85 C87 85.66 87 86.32 87 87 C87.66 87 88.32 87 89 87 C89 87.66 89 88.32 89 89 C89.66 89 90.32 89 91 89 C92.55078125 90.609375 92.55078125 90.609375 94.3125 92.75 C96.98762235 95.91761349 99.73925686 98.43092965 103 101 C103 101.66 103 102.32 103 103 C103.66 103 104.32 103 105 103 C105 103.66 105 104.32 105 105 C105.66 105 106.32 105 107 105 C107 105.66 107 106.32 107 107 C107.66 107 108.32 107 109 107 C109 107.66 109 108.32 109 109 C109.66 109 110.32 109 111 109 C111 109.66 111 110.32 111 111 C111.66 111 112.32 111 113 111 C113 111.66 113 112.32 113 113 C113.66 113 114.32 113 115 113 C115 113.66 115 114.32 115 115 C115.639375 115.268125 116.27875 115.53625 116.9375 115.8125 C119 117 119 117 120 120 C120.66 120 121.32 120 122 120 C122 120.66 122 121.32 122 122 C122.66 122 123.32 122 124 122 C124 122.66 124 123.32 124 124 C124.66 124 125.32 124 126 124 C126 124.66 126 125.32 126 126 C126.66 126 127.32 126 128 126 C128 126.66 128 127.32 128 128 C128.66 128 129.32 128 130 128 C130 128.66 130 129.32 130 130 C130.66 130 131.32 130 132 130 C133.48046875 131.5390625 133.48046875 131.5390625 135.1875 133.625 C138.1100663 137.08787267 141.15830902 139.97510908 144.71484375 142.7734375 C145.13894531 143.17820313 145.56304687 143.58296875 146 144 C146 144.66 146 145.32 146 146 C146.66 146 147.32 146 148 146 C148 146.66 148 147.32 148 148 C148.66 148 149.32 148 150 148 C150 148.66 150 149.32 150 150 C150.66 150 151.32 150 152 150 C152 150.66 152 151.32 152 152 C152.66 152 153.32 152 154 152 C154 152.66 154 153.32 154 154 C154.66 154 155.32 154 156 154 C156 154.66 156 155.32 156 156 C156.639375 156.268125 157.27875 156.53625 157.9375 156.8125 C160 158 160 158 161 161 C161.66 161 162.32 161 163 161 C163 161.66 163 162.32 163 163 C163.66 163 164.32 163 165 163 C165 163.66 165 164.32 165 165 C165.66 165 166.32 165 167 165 C167 165.66 167 166.32 167 167 C167.66 167 168.32 167 169 167 C169 167.66 169 168.32 169 169 C169.66 169 170.32 169 171 169 C171 169.66 171 170.32 171 171 C171.66 171 172.32 171 173 171 C173 171.66 173 172.32 173 173 C173.66 173 174.32 173 175 173 C176.55078125 174.609375 176.55078125 174.609375 178.3125 176.75 C180.98762235 179.91761349 183.73925686 182.43092965 187 185 C187 185.66 187 186.32 187 187 C187.66 187 188.32 187 189 187 C189 187.66 189 188.32 189 189 C189.66 189 190.32 189 191 189 C191 189.66 191 190.32 191 191 C191.66 191 192.32 191 193 191 C193 191.66 193 192.32 193 193 C193.66 193 194.32 193 195 193 C195 193.66 195 194.32 195 195 C195.66 195 196.32 195 197 195 C197 195.66 197 196.32 197 197 C197.66 197 198.32 197 199 197 C199 197.66 199 198.32 199 199 C199.639375 199.268125 200.27875 199.53625 200.9375 199.8125 C203 201 203 201 204 204 C204.66 204 205.32 204 206 204 C206 204.66 206 205.32 206 206 C206.66 206 207.32 206 208 206 C208 206.66 208 207.32 208 208 C208.66 208 209.32 208 210 208 C210 208.66 210 209.32 210 210 C210.66 210 211.32 210 212 210 C212 210.66 212 211.32 212 212 C212.66 212 213.32 212 214 212 C214 212.66 214 213.32 214 214 C214.66 214 215.32 214 216 214 C217.55078125 215.609375 217.55078125 215.609375 219.3125 217.75 C221.98762235 220.91761349 224.73925686 223.43092965 228 226 C228 226.66 228 227.32 228 228 C228.66 228 229.32 228 230 228 C230 228.66 230 229.32 230 230 C230.66 230 231.32 230 232 230 C232 230.66 232 231.32 232 232 C232.66 232 233.32 232 234 232 C233.49050713 236.26956012 232.29195177 238.20678554 229.26933956 241.22285175 C228.46268413 242.03747137 227.65602871 242.85209099 226.82492918 243.69139606 C225.92903296 244.57564091 225.03313675 245.45988576 224.11009216 246.3709259 C223.15554502 247.32721718 222.20187727 248.28438692 221.24901634 249.24235839 C218.62644716 251.87388248 215.99155033 254.49275351 213.35450375 257.10975873 C210.51359265 259.93341674 207.68422913 262.76860355 204.85345459 265.60241699 C199.94682607 270.51114423 195.03291944 275.41248711 190.11401176 280.30890846 C183.00209176 287.38833809 175.90122587 294.47877037 168.80302048 301.57194778 C157.28672648 313.07948449 145.76152575 324.57805782 134.23071289 336.07104492 C123.02876617 347.23628282 111.8310229 358.40570879 100.63891602 369.58081055 C99.94918276 370.26949291 99.25944951 370.95817527 98.54881524 371.66772679 C95.08869668 375.12262525 91.6286607 378.57760639 88.16866577 382.03262866 C59.45856876 410.70125009 30.73401057 439.355348 2 468 C-2.01260594 466.15093343 -4.73620297 463.50298454 -7.7890625 460.37109375 C-8.33356049 459.8213942 -8.87805847 459.27169464 -9.4390564 458.70533752 C-11.17253779 456.95408824 -12.89916551 455.19628312 -14.625 453.4375 C-16.35884152 451.67604189 -18.09412183 449.91606377 -19.83236694 448.15895081 C-20.91247367 447.06658495 -21.98989603 445.97155704 -23.06436157 444.87364197 C-25.76313489 442.08448055 -25.76313489 442.08448055 -29 440 C-29 439.34 -29 438.68 -29 438 C-29.66 438 -30.32 438 -31 438 C-31 437.34 -31 436.68 -31 436 C-31.66 436 -32.32 436 -33 436 C-33 435.34 -33 434.68 -33 434 C-33.66 434 -34.32 434 -35 434 C-35 433.34 -35 432.68 -35 432 C-35.66 432 -36.32 432 -37 432 C-37 431.34 -37 430.68 -37 430 C-37.66 430 -38.32 430 -39 430 C-40.32885742 428.65209961 -40.32885742 428.65209961 -41.91796875 426.71484375 C-46.29544229 421.56827794 -51.03405081 416.81505789 -55.81762695 412.05200195 C-57.33078666 410.54427904 -58.83842885 409.03118241 -60.34570312 407.51757812 C-61.30957474 406.55436608 -62.27375584 405.5914636 -63.23828125 404.62890625 C-64.10493408 403.76338135 -64.97158691 402.89785645 -65.86450195 402.00610352 C-67.83484761 399.9632226 -67.83484761 399.9632226 -70 399 C-70 398.34 -70 397.68 -70 397 C-70.66 397 -71.32 397 -72 397 C-72 396.34 -72 395.68 -72 395 C-72.66 395 -73.32 395 -74 395 C-74 394.34 -74 393.68 -74 393 C-74.66 393 -75.32 393 -76 393 C-76 392.34 -76 391.68 -76 391 C-76.66 391 -77.32 391 -78 391 C-78 390.34 -78 389.68 -78 389 C-78.66 389 -79.32 389 -80 389 C-81.29370117 387.68725586 -81.29370117 387.68725586 -82.85546875 385.77734375 C-87.51359325 380.30081852 -92.5819181 375.26780627 -97.67211914 370.19750977 C-99.33012955 368.54492818 -100.98263976 366.88697801 -102.63476562 365.22851562 C-103.68978311 364.17415781 -104.74511014 363.12010962 -105.80078125 362.06640625 C-106.29347 361.57169327 -106.78615875 361.07698029 -107.29377747 360.567276 C-109.9002738 357.95586542 -109.9002738 357.95586542 -113 356 C-113 355.34 -113 354.68 -113 354 C-113.66 354 -114.32 354 -115 354 C-115 353.34 -115 352.68 -115 352 C-115.66 352 -116.32 352 -117 352 C-117 351.34 -117 350.68 -117 350 C-117.66 350 -118.32 350 -119 350 C-119 349.34 -119 348.68 -119 348 C-119.66 348 -120.32 348 -121 348 C-122.29370117 346.68725586 -122.29370117 346.68725586 -123.85546875 344.77734375 C-128.51359325 339.30081852 -133.5819181 334.26780627 -138.67211914 329.19750977 C-140.33012955 327.54492818 -141.98263976 325.88697801 -143.63476562 324.22851562 C-144.68978311 323.17415781 -145.74511014 322.12010962 -146.80078125 321.06640625 C-147.29347 320.57169327 -147.78615875 320.07698029 -148.29377747 319.567276 C-150.9002738 316.95586542 -150.9002738 316.95586542 -154 315 C-154 314.34 -154 313.68 -154 313 C-154.66 313 -155.32 313 -156 313 C-156 312.34 -156 311.68 -156 311 C-156.66 311 -157.32 311 -158 311 C-158 310.34 -158 309.68 -158 309 C-158.66 309 -159.32 309 -160 309 C-160 308.34 -160 307.68 -160 307 C-160.66 307 -161.32 307 -162 307 C-162 306.34 -162 305.68 -162 305 C-162.66 305 -163.32 305 -164 305 C-165.32885742 303.65209961 -165.32885742 303.65209961 -166.91796875 301.71484375 C-171.29544229 296.56827794 -176.03405081 291.81505789 -180.81762695 287.05200195 C-182.33078666 285.54427904 -183.83842885 284.03118241 -185.34570312 282.51757812 C-186.30957474 281.55436608 -187.27375584 280.5914636 -188.23828125 279.62890625 C-189.10493408 278.76338135 -189.97158691 277.89785645 -190.86450195 277.00610352 C-192.83484761 274.9632226 -192.83484761 274.9632226 -195 274 C-195 273.34 -195 272.68 -195 272 C-195.66 272 -196.32 272 -197 272 C-197 271.34 -197 270.68 -197 270 C-197.66 270 -198.32 270 -199 270 C-199 269.34 -199 268.68 -199 268 C-199.66 268 -200.32 268 -201 268 C-201 267.34 -201 266.68 -201 266 C-201.66 266 -202.32 266 -203 266 C-203 265.34 -203 264.68 -203 264 C-203.66 264 -204.32 264 -205 264 C-206.34204102 262.63671875 -206.34204102 262.63671875 -207.94140625 260.6875 C-212.64135929 255.16015051 -217.78755691 250.10357873 -222.9375 245 C-223.9175531 244.02497614 -224.8973724 243.0497172 -225.87695312 242.07421875 C-228.24902313 239.71383382 -230.6234086 237.35583095 -233 235 C-231.5457508 231.65956995 -229.71629695 229.46741689 -227.14629173 226.90019608 C-225.93332202 225.68125322 -225.93332202 225.68125322 -224.69584787 224.43768525 C-223.8028645 223.55052756 -222.90988112 222.66336987 -221.98983765 221.74932861 C-221.03485534 220.79347424 -220.08031261 219.83718052 -219.12617266 218.8804853 C-216.50141057 216.25124583 -213.87044401 213.6282922 -211.23843813 211.00630689 C-208.40184029 208.1783356 -205.57101389 205.34459755 -202.73948669 202.5115509 C-197.83235011 197.60336497 -192.9215612 192.69885794 -188.00828171 187.79682159 C-180.90448659 180.70927166 -173.80621208 173.61621397 -166.70927842 166.52179429 C-155.19518467 155.01207918 -143.67663046 143.50683868 -132.15527344 132.00439453 C-120.96250284 120.82997835 -109.77183205 109.65346621 -98.58398438 98.47412109 C-97.89451384 97.78517601 -97.20504331 97.09623092 -96.49467973 96.38640872 C-93.03586616 92.9302052 -89.5770939 89.47396035 -86.11834216 86.01769495 C-57.41862883 57.33871939 -28.71167711 28.66699781 0 0 Z M-119 151 C-119 152.32 -119 153.64 -119 155 C-117.93458984 155.18175781 -117.93458984 155.18175781 -116.84765625 155.3671875 C-115.92855469 155.53476563 -115.00945312 155.70234375 -114.0625 155.875 C-113.14597656 156.03742188 -112.22945313 156.19984375 -111.28515625 156.3671875 C-110.15400391 156.68042969 -110.15400391 156.68042969 -109 157 C-107.79349804 159.41300392 -107.87160413 160.92836248 -107.86628723 163.62413025 C-107.86202225 164.59858597 -107.85775726 165.57304169 -107.85336304 166.57702637 C-107.85381622 167.64980835 -107.85426941 168.72259033 -107.85473633 169.82788086 C-107.84969841 171.5182119 -107.84969841 171.5182119 -107.84455872 173.24269104 C-107.83502698 176.98341969 -107.83310453 180.7241037 -107.83203125 184.46484375 C-107.82882036 187.05554727 -107.82545642 189.6462506 -107.82194519 192.23695374 C-107.81594845 197.67351784 -107.81406316 203.1100641 -107.81469727 208.54663086 C-107.8152982 214.8336848 -107.80474396 221.12065298 -107.7889536 227.40768522 C-107.77431313 233.45184316 -107.77070889 239.49595446 -107.77130699 245.54013252 C-107.77012367 248.11382968 -107.76568235 250.68752741 -107.75797462 253.2612133 C-107.7482191 256.8551236 -107.7510352 260.44881102 -107.75708008 264.04272461 C-107.75146057 265.11348236 -107.74584106 266.18424011 -107.74005127 267.28744507 C-107.74424576 268.26472061 -107.74844025 269.24199615 -107.75276184 270.24888611 C-107.75221707 271.09894698 -107.75167231 271.94900785 -107.75111103 272.82482815 C-108 275 -108 275 -110 278 C-112.1640625 278.73046875 -112.1640625 278.73046875 -114.625 279.1875 C-115.44226563 279.34605469 -116.25953125 279.50460937 -117.1015625 279.66796875 C-117.72804688 279.77753906 -118.35453125 279.88710938 -119 280 C-119 281.32 -119 282.64 -119 284 C-105.47 284 -91.94 284 -78 284 C-78 282.68 -78 281.36 -78 280 C-78.95712891 279.69255859 -78.95712891 279.69255859 -79.93359375 279.37890625 C-80.75988281 279.10949219 -81.58617187 278.84007812 -82.4375 278.5625 C-83.26121094 278.29566406 -84.08492187 278.02882813 -84.93359375 277.75390625 C-87 277 -87 277 -88 276 C-88.76583662 268.45077439 -88.70073343 260.77626543 -88.84448242 253.19506836 C-88.90595576 250.62916154 -88.99435254 248.06374309 -89.11108398 245.49975586 C-90.11506017 223.01447789 -90.11506017 223.01447789 -84.81689453 216.10693359 C-81.54313312 212.56648129 -77.97676589 209.7134561 -74 207 C-70.6383886 210.23483212 -68.50397641 213.3347041 -66.25 217.4375 C-62.8656444 223.5306315 -59.28172715 229.45894184 -55.56640625 235.35546875 C-54 238 -54 238 -53 241 C-52.34 241 -51.68 241 -51 241 C-50.90976563 241.5259375 -50.81953125 242.051875 -50.7265625 242.59375 C-49.74708705 245.83760417 -48.08276175 248.598119 -46.375 251.5 C-45.84410767 252.41942383 -45.84410767 252.41942383 -45.30249023 253.35742188 C-43.55049796 256.38426478 -41.76544697 259.38600726 -39.94921875 262.375 C-39.01529297 263.921875 -39.01529297 263.921875 -38.0625 265.5 C-37.49660156 266.4178125 -36.93070312 267.335625 -36.34765625 268.28125 C-35 271 -35 271 -34 277 C-37.96 277.99 -41.92 278.98 -46 280 C-46 281.32 -46 282.64 -46 284 C-30.16 284 -14.32 284 2 284 C2 282.68 2 281.36 2 280 C1.28714844 279.92523438 0.57429688 279.85046875 -0.16015625 279.7734375 C-1.11792969 279.64195312 -2.07570313 279.51046875 -3.0625 279.375 C-4.00222656 279.25898438 -4.94195312 279.14296875 -5.91015625 279.0234375 C-13.27032714 276.58555536 -17.33882609 270.62246588 -21.125 264.1875 C-21.55603027 263.47682373 -21.98706055 262.76614746 -22.43115234 262.03393555 C-24.96843081 257.82582505 -27.40517564 253.56874856 -29.7421875 249.24609375 C-31.98159727 245.24714773 -34.43736994 241.37939199 -36.8515625 237.484375 C-38.9757914 234.05100594 -41.05467522 230.59107072 -43.125 227.125 C-49.35075954 216.71015538 -55.68276712 206.35950585 -62 196 C-61.05091546 194.8802914 -60.1000481 193.76209381 -59.1484375 192.64453125 C-58.61911621 192.02167236 -58.08979492 191.39881348 -57.54443359 190.75708008 C-56.30104819 189.34249823 -54.97437397 188.00136413 -53.625 186.6875 C-51.7687861 185.15034461 -51.7687861 185.15034461 -52 183 C-51.43796875 182.7628125 -50.8759375 182.525625 -50.296875 182.28125 C-47.48105958 180.71052303 -45.52044584 178.78528536 -43.25 176.5 C-42.45078125 175.7059375 -41.6515625 174.911875 -40.828125 174.09375 C-38.78076391 172.21216538 -38.78076391 172.21216538 -39 170 C-38.34 170 -37.68 170 -37 170 C-37 169.34 -37 168.68 -37 168 C-36.34 168 -35.68 168 -35 168 C-35 167.34 -35 166.68 -35 166 C-34.42765625 165.75378906 -33.8553125 165.50757813 -33.265625 165.25390625 C-30.64335546 163.80261569 -28.87616275 162.04454258 -26.75 159.9375 C-22.44306474 155.98769039 -19.79273713 155 -14 155 C-14 153.68 -14 152.36 -14 151 C-24.56 151 -35.12 151 -46 151 C-46 152.32 -46 153.64 -46 155 C-44.3603125 155.2165625 -44.3603125 155.2165625 -42.6875 155.4375 C-39 156 -39 156 -36 157 C-37.29777511 161.91678879 -39.10141936 164.59589127 -42.69335938 168.16333008 C-43.1683638 168.6405249 -43.64336823 169.11771973 -44.13276672 169.609375 C-45.69365547 171.17256151 -47.26829477 172.72103811 -48.84375 174.26953125 C-49.93549369 175.35634795 -51.02642445 176.44398184 -52.11657715 177.53239441 C-54.39710222 179.80529683 -56.68391438 182.07159589 -58.97607422 184.33276367 C-61.91700499 187.23400315 -64.84695696 190.14601652 -67.77294159 193.06232166 C-70.56385485 195.84327555 -73.35970645 198.61924097 -76.15625 201.39453125 C-76.69046066 201.92534616 -77.22467133 202.45616108 -77.77507019 203.00306129 C-79.2829014 204.49934176 -80.79414912 205.99207484 -82.30664062 207.48364258 C-83.16664673 208.33380447 -84.02665283 209.18396637 -84.91271973 210.05989075 C-87 212 -87 212 -89 213 C-88.90781731 205.36427704 -88.80052302 197.72887468 -88.68261719 190.09350586 C-88.64428568 187.49492233 -88.60944026 184.89628498 -88.578125 182.29760742 C-88.53256534 178.56669857 -88.47455538 174.8361616 -88.4140625 171.10546875 C-88.40251129 169.93976852 -88.39096008 168.7740683 -88.37905884 167.57304382 C-88.35918915 166.49214981 -88.33931946 165.4112558 -88.31884766 164.29760742 C-88.30552399 163.34496506 -88.29220032 162.39232269 -88.2784729 161.41081238 C-88 159 -88 159 -86 156 C-84.0546875 155.48828125 -84.0546875 155.48828125 -81.875 155.3125 C-80.59625 155.209375 -79.3175 155.10625 -78 155 C-78 153.68 -78 152.36 -78 151 C-91.53 151 -105.06 151 -119 151 Z M7 151 C7 152.32 7 153.64 7 155 C8.258125 155.144375 9.51625 155.28875 10.8125 155.4375 C13.42667123 155.73748686 15.47439892 156.15813297 18 157 C18.09342862 172.31613736 18.16397195 187.63226157 18.20724869 202.94861984 C18.22787671 210.06024449 18.25600159 217.1716921 18.30175781 224.28320312 C18.34587447 231.14315727 18.36912208 238.00292717 18.37950897 244.86301422 C18.38691336 247.48335927 18.4013719 250.10369397 18.42292023 252.72396088 C18.45185625 256.38748641 18.45595995 260.05024622 18.45410156 263.71386719 C18.47567322 265.34737625 18.47567322 265.34737625 18.49768066 267.0138855 C18.45742941 274.32214294 18.45742941 274.32214294 16.20599365 277.6585083 C13.2058364 279.48294059 10.46491071 279.73346841 7 280 C7 281.32 7 282.64 7 284 C20.86 284 34.72 284 49 284 C49 282.68 49 281.36 49 280 C48.37351562 279.89042969 47.74703125 279.78085937 47.1015625 279.66796875 C46.28429687 279.50941406 45.46703125 279.35085938 44.625 279.1875 C43.40683594 278.96126953 43.40683594 278.96126953 42.1640625 278.73046875 C40 278 40 278 38 275 C37.7215271 272.43733215 37.7215271 272.43733215 37.68115234 269.33520508 C37.66128265 268.17422806 37.64141296 267.01325104 37.62094116 265.8170929 C37.60938995 264.56389755 37.59783875 263.31070221 37.5859375 262.01953125 C37.56657135 260.73640549 37.5472052 259.45327972 37.5272522 258.13127136 C37.47592708 254.7233905 37.43630368 251.31547014 37.39910889 247.90740967 C37.35907143 244.42840847 37.30808471 240.949569 37.2578125 237.47070312 C37.16001366 230.64719672 37.08050455 223.82382028 37 217 C55.15 217 73.3 217 92 217 C91.91142581 224.35631976 91.82103801 231.71220363 91.71270752 239.06819153 C91.66279322 242.49382585 91.61630189 245.91942789 91.578125 249.34521484 C91.53414924 253.27719477 91.47451681 257.2088625 91.4140625 261.140625 C91.40251129 262.36678528 91.39096008 263.59294556 91.37905884 264.85626221 C91.35918915 265.99714294 91.33931946 267.13802368 91.31884766 268.31347656 C91.30552399 269.31719299 91.29220032 270.32090942 91.2784729 271.3550415 C90.99257872 274.07048797 90.49431272 275.7272316 89 278 C86.8359375 278.828125 86.8359375 278.828125 84.375 279.25 C83.55773437 279.39953125 82.74046875 279.5490625 81.8984375 279.703125 C80.95871094 279.85007812 80.95871094 279.85007812 80 280 C80 281.32 80 282.64 80 284 C93.86 284 107.72 284 122 284 C122 282.68 122 281.36 122 280 C121.37351562 279.89042969 120.74703125 279.78085937 120.1015625 279.66796875 C119.28429687 279.50941406 118.46703125 279.35085938 117.625 279.1875 C116.40683594 278.96126953 116.40683594 278.96126953 115.1640625 278.73046875 C113 278 113 278 111 275 C110.74831772 272.80921078 110.74831772 272.80921078 110.74603271 270.21092224 C110.74039307 269.22523254 110.73475342 268.23954285 110.72894287 267.22398376 C110.73299133 266.14387527 110.73703979 265.06376678 110.74121094 263.95092773 C110.7377063 262.81253448 110.73420166 261.67414124 110.73059082 260.50125122 C110.72176959 256.72863718 110.72762376 252.95620979 110.734375 249.18359375 C110.73302856 246.56950342 110.7310882 243.95541333 110.72857666 241.34132385 C110.72493761 235.85944587 110.72973504 230.37762176 110.73925781 224.89575195 C110.75014771 218.55354958 110.74661272 212.21147574 110.735605 205.86927646 C110.72544553 199.77224483 110.72650779 193.67527029 110.73236847 187.57823372 C110.73370637 184.98138473 110.73205236 182.38453248 110.72740936 179.7876873 C110.72235364 176.16492787 110.73004083 172.54241845 110.74121094 168.91967773 C110.73716248 167.83754501 110.73311401 166.75541229 110.72894287 165.64048767 C110.73458252 164.6576178 110.74022217 163.67474792 110.74603271 162.66209412 C110.74678677 161.80503592 110.74754082 160.94797773 110.74831772 160.06494808 C111 158 111 158 113 156 C115.1640625 155.5859375 115.1640625 155.5859375 117.625 155.375 C118.85089844 155.26285156 118.85089844 155.26285156 120.1015625 155.1484375 C121.04128906 155.07496094 121.04128906 155.07496094 122 155 C122 153.68 122 152.36 122 151 C108.14 151 94.28 151 80 151 C80 152.32 80 153.64 80 155 C81.258125 155.144375 82.51625 155.28875 83.8125 155.4375 C86.42667123 155.73748686 88.47439892 156.15813297 91 157 C91.33 173.83 91.66 190.66 92 208 C73.85 208 55.7 208 37 208 C37.33 191.17 37.66 174.34 38 157 C38.66 157 39.32 157 40 157 C40 156.34 40 155.68 40 155 C42.97 155 45.94 155 49 155 C49 153.68 49 152.36 49 151 C35.14 151 21.28 151 7 151 Z " fill="#030303" transform="translate(249,16)"/>
</svg>
